@startuml
'skinparam monochrome true
skinparam packageStyle rectangle
skinparam shadowing false
skinparam linetype polyline
'skinparam linetype orto

skinparam classAttributeIconSize 0

'left to right direction

class ApplicationSession
{
    + static getInstance()
    + getCurrentSession()
}

class UserSession
{
    + getUserEmail()
}

class Employee {
    - name
    - email
    - position
    - phone
}

class Task {
    - String reference
    - String description
    - String informalDescription
    - String technicalDescription
    - Integer duration
    - Double cost

    + Task(reference, description,\ninformalDescription, technicalDescription,\nduration, cost, createdBy, taskCategory)
}

class TaskCategory {
    - String description

    + TaskCategory(description)
}

class Organization {
    - String name
    - String vatNumber
    - String website
    - String phone
    - String email

    - addTask(task)
    - validateTask(task)
    + anyEmployeeHasEmail(email)
    + Organization(name, vatNumber, webSite, phone, email, postalAddress, manager)
    + createTask(reference, description, informalDesccription,\ntechnicalDescription, duration, cost, taskCategoryDescription)
    - getEmployeeByEmail(email)

'  +saveTask(task)
}

class TaskCategoryRepository {
    + getTaskCategoryByDescription(description)
}

class OrganizationRepository {
    + getOrganizationByEmployeeEmail(email)
}

class Repositories {
    - Repositories()
    + getInstance() : Repositories
    + getTaskCategoryRepository()
    + getOrganizationRepository()
}

class RegisterVehicleController {
    + RegisterVehicleController()
    + registerVehicle(brand, model, vehicleID, type, grossWeight, tare, currentKm, registerDate, acquisitionDate, checkupFrequency)
    - getVehicleRepository()
    - getVehicleTypesList()
}

note right of RegisterVehicleController
    - userEmail is obtained
    from the user session
    - categoryDescription
    is retrieved from selected data
end note

note bottom of TaskCategoryRepository
    - used for displaying
    the category list
end note

class CreateTaskUI {
}

Repositories -> Repositories : instance
ApplicationSession -> ApplicationSession : instance

RegisterVehicleUI .> RegisterVehicleController

RegisterVehicleController .> Repositories : repositories

Repositories -> "1" TaskCategoryRepository

RegisterVehicleController ..> TaskCategory
RegisterVehicleController ..> OrganizationRepository : organizationRepository
RegisterVehicleController ..> TaskCategoryRepository : TaskCategoryRepository

Repositories --> "1" OrganizationRepository

OrganizationRepository --> "*" Organization
ApplicationSession --> "1" UserSession : userSession

RegisterVehicleController..> "1" Organization : organization
RegisterVehicleController ..> ApplicationSession
RegisterVehicleController ..> UserSession
Task "*" --> "1" TaskCategory : taskCategory
TaskCategoryRepository "1" --> "*" TaskCategory : taskCategory
Organization "1" --> "*" Task : tasks
Task --> Employee : createdBy

Organization --> "*" Employee : employs

@enduml