@startuml
'skinparam monochrome true
skinparam packageStyle rectangle
skinparam shadowing false
skinparam linetype polyline
'skinparam linetype orto

skinparam classAttributeIconSize 0

'left to right direction
class RegisterResultUI{

}

class RegisterResultController{

}

class Repositories{

}

class VehicleRepository{

}

class VehicleDetails{

}

class CheckUp{

}

class EmployeeRepository{

}

class Manager{

}

RegisterResultUI .> RegisterResultController
RegisterResultController ..> Repositories : repositories
Repositories -> "1" VehicleRepository
RegisterResultController ..> VehicleRepository : VehicleRepository
RegisterResultController ..> Manager
RegisterResultController ..> EmployeeRepository
RegisterResultController ..> CheckUp
RegisterResultController ..> VehicleDetails
VehicleRepository "1" -> "1*" VehicleDetails : vehicleDetails
VehicleRepository "1" -> "1" CheckUp
EmployeeRepository --> "1" Manager
Manager "1" --> "1" CheckUp : register

@enduml