@startuml
skinparam monochrome true
skinparam packageStyle rectangle
skinparam shadowing false

'left to right direction

skinparam classAttributeIconSize 0

hide circle
hide methods

'title Domain Model

'class Platform {
'  -description
'}
class Collaborators{
    competences
    profession
}
class Managers {
    name
    email
    position
    phone
}
class HRM{
}
Managers"1" -- "1"HRM: has >
Managers "1" -- "*"Collaborators: register competences >
'Employee "0..1" -- "1" User: acts as >
@enduml