@startuml
'skinparam monochrome true
skinparam packageStyle rectangle
skinparam shadowing false
skinparam linetype polyline
'skinparam linetype orto

skinparam classAttributeIconSize 0

'left to right direction
class RegisterResultUI{

}

class RegisterResultController{

}

class Repositories{
    - Repositories()
    + getInstance() : Repositories
    + getCollaboatorRepository()
    + getVehicleRepository()
    + getSkillRepository()
    + getJobRepository()
    + getAuthenticationRepository()
}

class VehicleRepository{
    -getVehicleTypesList
}

class Vehicle{
    - brand
    - model
    - vehicleID
    - type
    - grossWeight
    - tare
    - currentKm
    - registerDate
    - acquisitionDate
    - checkupFrequency

    + Vehicle(brand, model, vehicleID, \ntype, grossWeight, tare, currentKm, \nregisterDate, acquisitionDate, checkupFrequency)
    + equals()
    + needsCheckup()
}

class EmployeeRepository{

}

class Manager{

}

RegisterResultUI .> RegisterResultController
RegisterResultController ..> Repositories : repositories
Repositories -> Repositories : instance
Repositories "1" --> "1" VehicleRepository
VehicleRepository "1" --> "1*" Vehicle
Repositories "1" --> "1" EmployeeRepository
EmployeeRepository "1" --> "1*"Manager
Vehicle "1" <- "1" Manager : registers
'RegisterResultController ..> VehicleRepository : vehicleRepository'
'RegisterResultController ..> EmployeeRepository : employeeRepository'
'RegisterResultController ..> Manager'
'RegisterResultController ..> Vehicle'

@enduml