@startuml
skinparam monochrome true
skinparam packageStyle rectangle
skinparam shadowing false

'left to right direction

skinparam classAttributeIconSize 0

hide circle
hide methods

'title Domain Model

'class Platform {
'  -description
'}


class Team{
    Collaborators
}

class Managers{
    name
    email
    position
    phone
}
class Collaborators{
    competences
    profession
}
class Task {
    reference
    description
    informalDesc
    technicalDesc
    duration
    cost
}

Managers "1" -- "1..*" Team : create >
Collaborators "2..*" -- "1" Team : make >
Team "1" -- "1..*" Task : attributed <


@enduml